<svg xmlns="http://www.w3.org/2000/svg" width="321.18" height="65.702" viewBox="0 0 321.18 65.702">
  <g>
    <path d="M20.865,57.929a2.124,2.124,0,0,0,2.125,2.125h3.091v2.609H0V60.054H3.091a2.124,2.124,0,0,0,2.125-2.125V4.8A2.124,2.124,0,0,0,3.091,2.677H0V.069H26.081V2.677H22.99A2.124,2.124,0,0,0,20.865,4.8Z"/>
    <path d="M91.17,59.986v2.607H65.089V59.986H68.28a2.027,2.027,0,0,0,2.026-2.027V35.208a9.129,9.129,0,0,0-18.257,0V57.959a2.025,2.025,0,0,0,2.026,2.026h3.19v2.608H31.185V59.985h3.19A2.025,2.025,0,0,0,36.4,57.959V25.5a2.026,2.026,0,0,0-2.026-2.027h-3.19V20.865l18.632-2.329a1.985,1.985,0,0,1,2.232,1.97V27.9C55.274,23,61.294,19.706,69,19.706A17.129,17.129,0,0,1,85.954,36.658v21.3a2.026,2.026,0,0,0,2.026,2.027Z"/>
    <path d="M144.722,20.865v2.607h-3.531a2.075,2.075,0,0,0-1.81,1.061L116.269,65.7,93.156,24.533a2.076,2.076,0,0,0-1.811-1.061h-4V20.865h28.592v2.607h-4.321a.65.65,0,0,0-.567.968l12.7,22.615,12.7-22.615a.65.65,0,0,0-.566-.968h-4.194V20.865Z"/>
    <path d="M193.005,41.874c0,11.475-8.113,22.019-25.066,22.024s-25.066-10.549-25.066-22.024,8.114-22.888,25.066-22.893S193.005,30.4,193.005,41.874ZM177.357,30.717a9.423,9.423,0,0,0-18.836,0V52.162a9.423,9.423,0,0,0,18.836,0Z"/>
    <path d="M222.367,59.986v2.607h-26.08V59.986h3.19a2.026,2.026,0,0,0,2.026-2.027V25.5a2.026,2.026,0,0,0-2.026-2.027h-3.19V20.865l18.631-2.329a1.986,1.986,0,0,1,2.233,1.97V57.959a2.026,2.026,0,0,0,2.026,2.027ZM201.5,7.824a7.824,7.824,0,1,1,7.824,7.824A7.824,7.824,0,0,1,201.5,7.824Z"/>
    <path d="M265.569,48.441h2.652v9.616c-4.215,3.1-10.177,4.969-18.015,4.971-17.68.005-25.839-10.095-25.839-21.726s8.159-22.895,25.839-22.9c5.747,0,12.825,1.085,16.754,5.015a7.823,7.823,0,1,1-9.178-1.344,13.793,13.793,0,0,0-5.04-.908,12.76,12.76,0,0,0-12.727,12.852v13.4a12.792,12.792,0,0,0,25.554,1.027Z"/>
    <path d="M305.532,42.454H289.883c0,8.862,6.541,15.889,14.61,15.889a14.591,14.591,0,0,0,11.962-6.225c.6.5,1.26,1.057,1.925,1.623C314.9,59.65,308.128,63.894,297.708,63.9c-16.061,0-23.473-10.838-23.473-22.314,0-.194.008-.386.012-.58.251-11.248,7.792-21.733,23.461-21.733,15.841,0,23.472,10.838,23.472,22.313,0,.291-.009.581-.018.87Zm-15.649-2.609h15.649v-10a7.825,7.825,0,0,0-15.649,0v10Z"/>
  </g>
</svg>
